<svg xmlns="http://www.w3.org/2000/svg" width="134" height="106" viewBox="0 0 134 106">
    <g fill="none" fill-rule="evenodd" transform="translate(0 2)">
        <ellipse cx="118.5" cy="19" fill="#FAF1FF" rx="15.5" ry="15"/>
        <ellipse cx="41.5" cy="63" fill="#FAF1FF" rx="41.5" ry="41"/>
        <path fill="#FFF" stroke="#8427BF" stroke-linecap="round" stroke-linejoin="round" stroke-width="3" d="M117.73 17.75V.36h-17.277l-9.528 14.32 12.577 12.787zM96.737 36.002l-14.61-14.576-21.725 7.16-13.975 37.592 1.017 1.022 16.008-16.11c-.89-2.174-.382-4.86 1.397-6.65.28-.28.58-.528.896-.744 0 0 3.153-2.18 6.4-.35a6.17 6.17 0 0 1 1.47 1.095c2.414 2.43 2.414 6.393 0 8.822-1.779 1.79-4.32 2.302-6.606 1.407L51.255 70.909l1.017 1.022 37.35-14.064 7.115-21.737-.032-.032.032-.096z"/>
        <path fill="#984DCE" stroke="#8427BF" stroke-linecap="round" stroke-linejoin="round" stroke-width="3" d="M104.455 35.938a5.42 5.42 0 0 1-7.75 0L82.603 21.745a5.505 5.505 0 0 1 0-7.8 5.42 5.42 0 0 1 7.75 0l14.102 14.193c2.16 2.046 2.16 5.626 0 7.8z"/>
        <path fill="#984DCE" d="M110.076 84.974H44.65c-4.192 0-7.623-3.197-7.623-7.416 0-4.22 3.43-7.544 7.623-7.544 1.016 0 1.905.895 1.905 1.917 0 1.024-.889 1.918-1.905 1.918-2.16 0-3.811 1.535-3.811 3.58 0 2.047 1.651 3.58 3.81 3.58h65.428c1.017 0 1.906.896 1.906 1.919 0 1.023-.89 2.046-1.906 2.046"/>
    </g>
</svg>
