<svg xmlns="http://www.w3.org/2000/svg" width="144" height="111" viewBox="0 0 144 111">
    <g fill="none" fill-rule="evenodd">
        <ellipse cx="98" cy="65.5" fill="#FAF1FF" rx="46" ry="45.5"/>
        <ellipse cx="15.5" cy="15" fill="#FAF1FF" rx="15.5" ry="15"/>
        <g stroke="#8427BF" stroke-width="3">
            <path fill="#984DCE" d="M84 48a7 7 0 1 1-14 0 7 7 0 0 1 14 0zM54 38a7 7 0 1 1-14 0 7 7 0 0 1 14 0z"/>
            <path d="M47.314 43.425c3.085 0 5.994 1.165 8.55 3.223L67.97 26.23 77 11H17l21.345 36c2.656-2.276 5.714-3.575 8.97-3.575z"/>
            <path fill="#FFF" d="M46.5 71c7.857 0 14.6-3.257 17.5-7.904C61.1 52.458 54.357 45 46.5 45c-7.857 0-14.6 7.458-17.5 18.096C31.9 67.743 38.643 71 46.5 71zM108.5 71c7.857 0 14.6-3.257 17.5-7.904C123.1 52.458 116.357 45 108.5 45c-7.857 0-14.6 7.458-17.5 18.096C93.9 67.743 100.643 71 108.5 71z"/>
            <path d="M107.392 43.276c3.335 0 6.464 1.355 9.165 3.724L138 11H78l21.043 35.33c2.508-1.95 5.344-3.054 8.35-3.054z"/>
            <path fill="#FFF" d="M77.5 81c7.857 0 14.6-3.132 17.5-7.6C92.1 63.171 85.357 56 77.5 56c-7.857 0-14.6 7.171-17.5 17.4 2.9 4.468 9.643 7.6 17.5 7.6z"/>
            <path fill="#984DCE" d="M115 38a7 7 0 1 1-14 0 7 7 0 0 1 14 0z"/>
        </g>
    </g>
</svg>
