<svg xmlns="http://www.w3.org/2000/svg" xmlns:xlink="http://www.w3.org/1999/xlink" width="1258" height="675" viewBox="0 0 1258 675">
    <defs>
        <path id="a" d="M.544 60h63.421V.594H.545V60z"/>
        <path id="c" d="M0 44h47V0H0v44z"/>
        <path id="e" d="M0 96.016h102.563V0H0v96.016z"/>
        <path id="g" d="M0 65.742h70.224V0H0v65.742z"/>
        <path id="i" d="M0 54.476h58.19V0H0v54.476z"/>
        <path id="k" d="M0 .864v63.83h57.935V.864z"/>
    </defs>
    <g fill="none" fill-rule="evenodd" opacity=".25">
        <path fill="#7232A0" fill-opacity=".54" d="M1219.608 312.487c-4.477-3.421-5.334-9.824-1.913-14.302 3.422-4.477 9.824-5.334 14.302-1.913 4.478 3.42 5.334 9.824 1.913 14.302-3.422 4.477-9.824 5.334-14.302 1.913zm-37.698-41.735l36.77 88.25 58.04-75.968-94.81-12.282z" style="mix-blend-mode:screen"/>
        <path fill="#984DCE" d="M1061.093 226.858c4.603-4.37 11.877-4.182 16.247.42 4.37 4.604 4.18 11.878-.422 16.247-4.602 4.37-11.876 4.182-16.246-.421-4.37-4.602-4.182-11.876.42-16.246zm53.135-34.488l-104.7 25.164 74.142 78.09 30.558-103.254z"/>
        <path fill="#984DCE" fill-opacity=".26" d="M1266.408 120.75c6.158.08 11.087 5.136 11.007 11.294-.079 6.158-5.135 11.086-11.293 11.007-6.16-.08-11.086-5.136-11.008-11.294.08-6.158 5.136-11.086 11.294-11.007zm60.283 12.008l-89.81-53.404-1.345 104.48 91.155-51.076z" style="mix-blend-mode:screen"/>
        <path fill="#984DCE" d="M1150.096 466.946a6.836 6.836 0 1 1 1.511 13.585 6.836 6.836 0 0 1-1.511-13.585zm37.579 2.741L1129 444l7.092 63.656 51.583-37.969z" opacity=".63"/>
        <path fill="#984DCE" fill-opacity=".76" d="M1246.658 550.2a5.27 5.27 0 1 1-9.022-5.446 5.27 5.27 0 0 1 9.022 5.446zm-19.297 21.705l43.227-23.852-42.27-25.51-.957 49.362z" opacity=".73"/>
        <g opacity=".341" transform="rotate(96 299.196 772.12)">
            <mask id="b" fill="#fff">
                <use xlink:href="#a"/>
            </mask>
            <path fill="#984DCE" d="M39.034 31.748a6.835 6.835 0 1 1-8.426 10.766 6.836 6.836 0 0 1 8.426-10.766zM63.965 60L40.018.594.544 51.035 63.965 60z" mask="url(#b)"/>
        </g>
        <g opacity=".154" transform="rotate(16 -1629.643 4383.505)">
            <mask id="d" fill="#fff">
                <use xlink:href="#c"/>
            </mask>
            <path fill="#984DCE" d="M28.524 23.075a5.06 5.06 0 0 1 .867 7.107 5.068 5.068 0 0 1-7.111.867 5.062 5.062 0 0 1-.867-7.108 5.067 5.067 0 0 1 7.111-.866zM47 44L29.253 0 0 37.36 47 44z" mask="url(#d)"/>
        </g>
        <g opacity=".186" style="mix-blend-mode:screen" transform="rotate(13 -120.132 155.141)">
            <mask id="f" fill="#fff">
                <use xlink:href="#e"/>
            </mask>
            <path fill="#984DCE" d="M62.245 50.353c4.808 3.76 5.655 10.703 1.892 15.51-3.761 4.804-10.709 5.652-15.518 1.891-4.807-3.761-5.656-10.704-1.892-15.51 3.761-4.805 10.71-5.652 15.518-1.89zm40.318 45.663L63.836 0 0 81.526l102.563 14.49z" mask="url(#f)"/>
        </g>
        <g opacity=".439" transform="rotate(-171 88.236 193.436)">
            <mask id="h" fill="#fff">
                <use xlink:href="#g"/>
            </mask>
            <path fill="#984DCE" d="M42.619 34.477a7.561 7.561 0 0 1 1.295 10.62A7.572 7.572 0 0 1 33.29 46.39a7.563 7.563 0 0 1-1.295-10.62 7.571 7.571 0 0 1 10.625-1.294zm27.605 31.265L43.71 0 0 55.82l70.224 9.922z" mask="url(#h)"/>
        </g>
        <g opacity=".439" transform="rotate(104 -52.963 137.005)">
            <mask id="j" fill="#fff">
                <use xlink:href="#i"/>
            </mask>
            <path fill="#984DCE" d="M35.315 28.568a6.266 6.266 0 0 1 1.074 8.8 6.275 6.275 0 0 1-8.805 1.073 6.267 6.267 0 0 1-1.073-8.8 6.274 6.274 0 0 1 8.804-1.073zM58.19 54.476L36.218 0 0 46.255l58.19 8.22z" mask="url(#j)"/>
        </g>
        <g opacity=".535" transform="translate(887)">
            <mask id="l" fill="#fff">
                <use xlink:href="#k"/>
            </mask>
            <path fill="#984DCE" d="M42.472 30.334a6.836 6.836 0 1 1-11.232 7.794 6.836 6.836 0 0 1 11.232-7.794zm15.463 34.36L52.623.864 0 37.379l57.935 27.315z" mask="url(#l)"/>
        </g>
        <path fill="#984DCE" d="M1137.031 69.549a5.709 5.709 0 1 1-9.043-6.97 5.709 5.709 0 0 1 9.043 6.97zm-23.438 20.993l49.46-20.363-42.365-32.652-7.095 53.015z"/>
    </g>
</svg>
