<?xml version="1.0" encoding="UTF-8"?>
<svg width="76px" height="75px" viewBox="0 0 76 75" version="1.1" xmlns="http://www.w3.org/2000/svg" xmlns:xlink="http://www.w3.org/1999/xlink">
    <!-- Generator: Sketch 45.2 (43514) - http://www.bohemiancoding.com/sketch -->
    <title>Wall_icon_big</title>
    <desc>Created with Sketch.</desc>
    <defs>
        <rect id="path-1" x="0" y="0" width="63" height="63" rx="31.5"></rect>
        <filter x="-16.7%" y="-11.9%" width="133.3%" height="133.3%" filterUnits="objectBoundingBox" id="filter-2">
            <feOffset dx="0" dy="3" in="SourceAlpha" result="shadowOffsetOuter1"></feOffset>
            <feMorphology radius="1.5" operator="erode" in="SourceAlpha" result="shadowInner"></feMorphology>
            <feOffset dx="0" dy="3" in="shadowInner" result="shadowInner"></feOffset>
            <feComposite in="shadowOffsetOuter1" in2="shadowInner" operator="out" result="shadowOffsetOuter1"></feComposite>
            <feGaussianBlur stdDeviation="3" in="shadowOffsetOuter1" result="shadowBlurOuter1"></feGaussianBlur>
            <feColorMatrix values="0 0 0 0 0   0 0 0 0 0   0 0 0 0 0  0 0 0 0.326483243 0" type="matrix" in="shadowBlurOuter1"></feColorMatrix>
        </filter>
    </defs>
    <g id="2_Vistas-Walls---(Registered)" stroke="none" stroke-width="1" fill="none" fill-rule="evenodd">
        <g id="2_Vista-Walls-UR-Desktop" transform="translate(-810.000000, -223.000000)">
            <g id="Wall_icon_big" transform="translate(816.631652, 226.000000)">
                <g id="Rectangle-7">
                    <use fill="black" fill-opacity="1" filter="url(#filter-2)" xlink:href="#path-1"></use>
                    <rect stroke="#FFFFFF" stroke-width="1.5" x="0.75" y="0.75" width="61.5" height="61.5" rx="30.75"></rect>
                </g>
                <g id="Group-8" transform="translate(30.154038, 33.147169) rotate(-315.000000) translate(-30.154038, -33.147169) translate(9.154038, 15.147169)" stroke="#FFFFFF" stroke-width="1.5">
                    <path d="M23.1733521,6.54432633 L17.1253521,6.54432633 L17.1253521,1.63608158 C17.1253521,0.732964549 17.8027281,3.41060513e-13 18.6373521,3.41060513e-13 L21.6613521,3.41060513e-13 C22.4959761,3.41060513e-13 23.1733521,0.732964549 23.1733521,1.63608158 L23.1733521,6.54432633 Z" id="Stroke-289" stroke-linecap="round" stroke-linejoin="round"></path>
                    <path d="M23.1733521,27.8133869 L20.1493521,35.9937948 L17.1253521,27.8133869 L17.5245201,27.3814614 C18.9745281,25.8124591 21.3241761,25.8124591 22.7741841,27.3814614 L23.1733521,27.8133869 Z" id="Stroke-290" stroke-linecap="round" stroke-linejoin="round"></path>
                    <path d="M17.1253521,6.54432633 L17.1253521,27.8133869 L17.5245201,27.3814614 C18.9745281,25.8124591 21.3241761,25.8124591 22.7741841,27.3814614 L23.1733521,27.8133869 L23.1733521,6.54432633 L17.1253521,6.54432633 Z" id="Stroke-291" stroke-linecap="round" stroke-linejoin="round"></path>
                    <polyline id="Path-2" points="29.7253521 6.35184614 41.6285909 18.3530432 30.2590473 29.816153"></polyline>
                    <polyline id="Path-2-Copy" transform="translate(6.106657, 12.975412) rotate(-180.000000) translate(-6.106657, -12.975412) " points="0.155037553 1.24325833 12.0582764 13.2444554 0.688732742 24.7075652"></polyline>
                </g>
            </g>
        </g>
    </g>
</svg>