<svg xmlns="http://www.w3.org/2000/svg" width="122" height="122" viewBox="0 0 122 122">
    <defs>
        <filter id="a" width="118.6%" height="118.6%" x="-9.3%" y="-9.3%" filterUnits="objectBoundingBox">
            <feGaussianBlur in="SourceGraphic" stdDeviation="3.228"/>
        </filter>
    </defs>
    <g fill="none" fill-rule="evenodd">
        <path fill="#4D1274" d="M5.667 3C-.454 3.01.708 12.208.708 12.208h24.084S19.392 3 5.667 3zM119 116.19c-.01 6.264-9.208 4.996-9.208 4.996V97.208s9.208 5.4 9.208 18.982z"/>
        <path fill="#000" d="M13.313 53.734C37.891 29.533 47.918 19.55 54.68 13.274c6.254-6.682 12.87-8.597 13.064-8.67h41.109L4.604 108.853V67.462c.073-.194 2.612-7.392 8.71-13.728z" filter="url(#a)" opacity=".1" transform="rotate(90 58 61)"/>
        <path fill="#4D1274" d="M72.25 10.083c23.727 23.988 33.514 33.775 39.667 40.375 6.55 6.104 7.012 12.56 7.083 12.75v53.834s-.472-10.464-9.917-20.542L24.792 12.917C15.168 3.219 4.958 3 4.958 3h53.834c.19.071 7.246 1.133 13.458 7.083z"/>
    </g>
</svg>
